<svg width="179" height="36" viewBox="0 0 179 36" fill="none" xmlns="http://www.w3.org/2000/svg">
<path d="M10.125 25.4805C10.125 24.8242 10.3477 24.2734 10.793 23.8281C11.2617 23.3594 11.8242 23.125 12.4805 23.125H17.8594L16.9453 20.5234C16.5703 19.5625 16.1953 18.6602 15.8203 17.8164C15.4688 16.9492 15.0586 16.1641 14.5898 15.4609C14.168 14.7578 13.6875 14.3828 13.1484 14.3359C12.5859 14.3828 12.082 14.7578 11.6367 15.4609C11.1914 16.1641 10.7812 16.9492 10.4062 17.8164C10.0547 18.6602 9.69141 19.5625 9.31641 20.5234L5.97656 29.6641C5.74219 30.1562 5.4375 30.5664 5.0625 30.8945C4.71094 31.1992 4.17188 31.3516 3.44531 31.3516C2.76562 31.3516 2.20312 31.1172 1.75781 30.6484C1.33594 30.1797 1.14844 29.6172 1.19531 28.9609C1.21875 28.6562 1.28906 28.375 1.40625 28.1172L5.27344 18.1328C6.35156 15.5078 7.42969 13.3867 8.50781 11.7695C9.5625 10.1758 11.1094 9.36719 13.1484 9.34375C15.1641 9.36719 16.6992 10.1758 17.7539 11.7695C18.832 13.3398 19.9102 15.4609 20.9883 18.1328L24.8555 28.1172C24.9727 28.375 25.043 28.6562 25.0664 28.9609C25.1133 29.6172 24.9141 30.1797 24.4688 30.6484C24.0469 31.1172 23.4961 31.3516 22.8164 31.3516C22.043 31.3516 21.4688 31.1992 21.0938 30.8945C20.7422 30.5664 20.4492 30.1562 20.2148 29.6641L19.5469 27.8359H12.4805C11.8242 27.8359 11.2734 27.6016 10.8281 27.1328C10.3594 26.6875 10.125 26.1367 10.125 25.4805ZM33.3281 11.9102V25.3047C33.3281 25.8906 33.6328 26.1953 34.2422 26.2188H46.5469C46.9922 26.1953 47.3789 26.0078 47.707 25.6562C48.0352 25.2812 48.2695 24.8594 48.4102 24.3906C48.5742 23.8984 48.6562 23.4062 48.6562 22.9141C48.6562 22.4453 48.5742 21.9766 48.4102 21.5078C48.2695 21.0156 48.0352 20.5938 47.707 20.2422C47.3789 19.8672 46.9922 19.6797 46.5469 19.6797H37.5469C36.8906 19.6797 36.3281 19.457 35.8594 19.0117C35.4141 18.543 35.1914 17.9805 35.1914 17.3242C35.1914 16.668 35.4258 16.1172 35.8945 15.6719C36.3398 15.2031 36.8906 14.9688 37.5469 14.9688H46.4062C48.0469 14.9922 49.3945 15.4609 50.4492 16.375C51.5273 17.2656 52.2891 18.2852 52.7344 19.4336C53.2031 20.5586 53.4375 21.7305 53.4375 22.9492C53.4375 24.1211 53.2031 25.2812 52.7344 26.4297C52.2656 27.5547 51.5039 28.5742 50.4492 29.4883C49.3945 30.3789 47.8359 30.8594 45.7734 30.9297H31.0078C30.3516 30.9297 29.7891 30.7188 29.3203 30.2969C28.8516 29.8516 28.6055 29.3008 28.582 28.6445V11.9102C28.582 11.2539 28.8164 10.7148 29.2852 10.293C29.7773 9.84766 30.3516 9.625 31.0078 9.625C32.4141 9.74219 33.1875 10.5039 33.3281 11.9102ZM59.6602 9.625C60.293 9.64844 60.832 9.88281 61.2773 10.3281C61.7227 10.75 61.957 11.2773 61.9805 11.9102V14.9688H72.8789C74.5195 14.9922 75.8672 15.4609 76.9219 16.375C78 17.2656 78.7617 18.2734 79.207 19.3984C79.6758 20.5469 79.9102 21.7305 79.9102 22.9492H79.9453V29.0664C79.9453 29.7227 79.6992 30.2734 79.207 30.7188C78.7383 31.1406 78.1758 31.3516 77.5195 31.3516C76.1133 31.2344 75.3398 30.4727 75.1992 29.0664V22.9141C75.1992 22.4688 75.1055 22 74.918 21.5078C74.7539 21.0156 74.5078 20.5938 74.1797 20.2422C73.8516 19.8672 73.4648 19.6797 73.0195 19.6797H61.9805V29.1367C61.8398 30.543 61.0664 31.3047 59.6602 31.4219C59.0039 31.4219 58.4297 31.2109 57.9375 30.7891C57.4688 30.3438 57.2344 29.793 57.2344 29.1367V11.9102C57.2578 11.2539 57.5039 10.7148 57.9727 10.293C58.4414 9.84766 59.0039 9.625 59.6602 9.625ZM86.8008 14.6172C87.4336 14.6406 87.9727 14.875 88.418 15.3203C88.8633 15.7422 89.0977 16.2695 89.1211 16.9023V29.0664C88.9805 30.4727 88.207 31.2344 86.8008 31.3516C86.1445 31.3516 85.5703 31.1406 85.0781 30.7188C84.6094 30.2734 84.375 29.7227 84.375 29.0664V16.9023C84.3984 16.2461 84.6445 15.707 85.1133 15.2852C85.582 14.8398 86.1445 14.6172 86.8008 14.6172ZM83.8477 10.0469C83.8477 9.39063 84.1289 8.82813 84.6914 8.35938C85.2539 7.89062 85.9336 7.65625 86.7305 7.65625C87.5273 7.65625 88.207 7.89062 88.7695 8.35938C89.332 8.82813 89.6133 9.39063 89.6133 10.0469C89.6133 10.7266 89.332 11.3008 88.7695 11.7695C88.207 12.2383 87.5273 12.4727 86.7305 12.4727C85.9336 12.4727 85.2539 12.2383 84.6914 11.7695C84.1289 11.3008 83.8477 10.7266 83.8477 10.0469ZM104.625 14.4414C105.844 14.4414 107.039 14.582 108.211 14.8633C109.406 15.1445 110.543 15.5664 111.621 16.1289C112.699 16.668 113.648 17.3945 114.469 18.3086C115.312 19.2227 115.77 20.3125 115.84 21.5781V23.0547V29.0664C115.699 30.4727 114.926 31.2344 113.52 31.3516C112.863 31.3516 112.289 31.1406 111.797 30.7188C111.328 30.2734 111.094 29.7227 111.094 29.0664V27.5195V22.668C111.047 21.9414 110.766 21.3438 110.25 20.875C109.758 20.3828 109.195 19.9961 108.562 19.7148C107.953 19.4336 107.309 19.2227 106.629 19.082C105.973 18.9414 105.305 18.8711 104.625 18.8711C103.945 18.8711 103.266 18.9414 102.586 19.082C101.93 19.2227 101.285 19.4336 100.652 19.7148C100.043 19.9961 99.4805 20.3828 98.9648 20.875C98.4727 21.3438 98.2031 21.9414 98.1562 22.668V27.5195V29.0664C98.0391 30.4727 97.2773 31.2344 95.8711 31.3516C95.2148 31.3516 94.6406 31.1406 94.1484 30.7188C93.6797 30.2734 93.4453 29.7227 93.4453 29.0664V23.0547V21.5781C93.5156 20.3125 93.9609 19.2227 94.7812 18.3086C95.6016 17.3945 96.5508 16.668 97.6289 16.1289C98.707 15.5664 99.832 15.1445 101.004 14.8633C102.199 14.582 103.406 14.4414 104.625 14.4414ZM139.957 29.0664V20.5938C139.957 20.0078 139.652 19.7031 139.043 19.6797H126.738C126.293 19.7031 125.906 19.9023 125.578 20.2773C125.25 20.6289 125.004 21.0508 124.84 21.543C124.699 22.0117 124.629 22.4922 124.629 22.9844C124.629 23.4531 124.699 23.9336 124.84 24.4258C125.004 24.8945 125.25 25.3164 125.578 25.6914C125.906 26.043 126.293 26.2188 126.738 26.2188H135.738C136.395 26.2188 136.945 26.4531 137.391 26.9219C137.859 27.3672 138.094 27.918 138.094 28.5742C138.094 29.2305 137.859 29.7812 137.391 30.2266C136.945 30.6953 136.395 30.9297 135.738 30.9297H126.879C125.238 30.9062 123.879 30.4492 122.801 29.5586C121.746 28.6445 120.984 27.625 120.516 26.5C120.07 25.3516 119.848 24.168 119.848 22.9492C119.848 21.7773 120.082 20.6289 120.551 19.5039C121.02 18.3555 121.781 17.3359 122.836 16.4453C123.891 15.5312 125.449 15.0391 127.512 14.9688H142.277C142.934 14.9688 143.496 15.1914 143.965 15.6367C144.434 16.0586 144.68 16.5977 144.703 17.2539V29.0664C144.703 29.7227 144.457 30.2734 143.965 30.7188C143.496 31.1406 142.934 31.3516 142.277 31.3516C140.871 31.2344 140.098 30.4727 139.957 29.0664ZM154.793 29.0664C153.598 27.4492 152.402 25.3281 151.207 22.7031L148.922 17.7812C148.805 17.5234 148.734 17.2422 148.711 16.9375C148.664 16.2812 148.863 15.7188 149.309 15.25C149.754 14.7812 150.34 14.5469 151.066 14.5469C151.863 14.5469 152.449 14.7109 152.824 15.0391C153.223 15.3438 153.539 15.7422 153.773 16.2344L155.426 20.3125C155.848 21.2734 156.258 22.1875 156.656 23.0547C157.078 23.8984 157.547 24.6719 158.062 25.375C158.602 26.0781 159.199 26.4531 159.855 26.5C160.488 26.4531 161.086 26.0781 161.648 25.375C162.141 24.6719 162.586 23.8984 162.984 23.0547C163.406 22.1875 163.828 21.2734 164.25 20.3125L165.902 16.2344C166.137 15.7422 166.441 15.3438 166.816 15.0391C167.215 14.7109 167.812 14.5469 168.609 14.5469C169.336 14.5469 169.922 14.7812 170.367 15.25C170.812 15.7188 171.012 16.2812 170.965 16.9375C170.941 17.2422 170.871 17.5234 170.754 17.7812L168.469 22.7031C167.273 25.3281 166.078 27.4492 164.883 29.0664C163.734 30.6602 162.059 31.4688 159.855 31.4922C157.629 31.4688 155.941 30.6602 154.793 29.0664Z" fill="white"/>
<circle cx="175.5" cy="27.5" r="3.5" fill="#F70707"/>
</svg>
